<?xml version="1.0" standalone="no"?>
<!DOCTYPE svg PUBLIC "-//W3C//DTD SVG 20010904//EN"
 "http://www.w3.org/TR/2001/REC-SVG-20010904/DTD/svg10.dtd">
<svg version="1.0" xmlns="http://www.w3.org/2000/svg"
 width="219.000000pt" height="219.000000pt" viewBox="0 0 219.000000 219.000000"
 preserveAspectRatio="xMidYMid meet">
<metadata>
Created by potrace 1.11, written by Peter Selinger 2001-2013
</metadata>
<g transform="translate(0.000000,219.000000) scale(0.100000,-0.100000)"
fill="#000000" stroke="none">
<path d="M1073 2154 c-13 -19 -23 -40 -23 -45 0 -5 -4 -9 -10 -9 -5 0 -10 -7
-10 -15 0 -8 -5 -15 -11 -15 -5 0 -7 -4 -4 -10 3 -5 1 -10 -4 -10 -6 0 -11 -4
-11 -9 0 -5 -18 -36 -40 -69 -22 -33 -40 -65 -40 -71 0 -6 -4 -11 -8 -11 -5 0
-17 -18 -27 -40 -10 -22 -22 -40 -27 -40 -5 0 -6 -4 -3 -10 3 -5 1 -10 -5 -10
-6 0 -8 -4 -5 -10 3 -5 3 -10 -2 -10 -4 0 -13 -10 -19 -23 -31 -63 -107 -192
-115 -195 -5 -2 -7 -7 -4 -12 3 -5 -2 -15 -10 -24 -9 -8 -16 -17 -16 -18 1
-15 -13 -48 -20 -48 -5 0 -6 -7 -2 -15 3 -10 0 -15 -8 -13 -9 2 -13 -4 -11
-14 2 -10 -2 -18 -8 -18 -5 0 -9 -3 -8 -7 3 -10 -69 -158 -93 -193 -9 -14 -18
-29 -19 -35 -1 -5 -7 -21 -13 -35 -5 -14 -11 -32 -13 -40 -2 -8 -7 -16 -13
-18 -5 -2 -8 -9 -5 -16 3 -8 -4 -30 -15 -50 -11 -20 -18 -36 -15 -36 4 0 1 -7
-6 -15 -6 -8 -9 -18 -6 -24 4 -5 0 -15 -7 -23 -7 -7 -12 -23 -11 -36 1 -12 -3
-25 -7 -28 -11 -6 -12 -261 -1 -268 4 -2 9 -19 10 -38 2 -18 7 -35 12 -36 6
-2 8 -7 5 -12 -3 -4 8 -34 24 -67 16 -32 30 -61 30 -65 1 -5 8 -16 16 -25 9
-10 35 -41 59 -70 24 -28 46 -49 49 -47 3 3 8 -3 11 -13 4 -10 28 -34 54 -53
26 -19 50 -39 53 -43 3 -5 8 -8 10 -8 12 2 49 -13 49 -19 0 -4 8 -10 18 -13 9
-3 40 -14 67 -25 28 -10 59 -18 68 -16 9 1 17 -2 17 -8 0 -6 61 -8 163 -5 164
4 199 8 221 27 7 5 16 7 19 3 4 -3 13 0 22 7 8 7 15 9 15 4 0 -5 7 -1 14 9 8
10 17 18 20 17 4 0 20 7 36 15 17 9 30 12 30 8 0 -4 7 3 16 15 8 12 19 20 23
17 5 -2 44 33 87 79 91 97 114 125 114 143 0 7 5 13 10 13 6 0 10 7 10 15 0 8
4 15 10 15 5 0 7 7 4 15 -4 8 -2 15 4 15 10 0 28 56 24 72 -1 5 2 8 7 8 14 0
24 78 26 208 1 73 -2 122 -8 122 -5 0 -7 12 -4 26 3 16 0 28 -9 31 -8 3 -12 9
-9 13 3 5 1 19 -4 32 -15 38 -24 63 -25 70 -1 3 -4 10 -8 14 -5 4 -8 13 -8 20
0 8 -13 42 -28 76 -16 35 -35 78 -43 96 -8 17 -18 32 -22 32 -5 0 -5 5 -2 10
3 6 1 10 -4 10 -6 0 -11 9 -11 20 0 11 -5 20 -11 20 -6 0 -9 7 -5 15 3 8 1 15
-4 15 -6 0 -10 7 -10 15 0 8 -5 15 -11 15 -5 0 -7 5 -4 10 3 6 0 13 -9 16 -8
3 -12 12 -10 19 3 7 0 16 -5 20 -6 3 -9 11 -6 16 4 5 1 9 -4 9 -6 0 -11 7 -11
15 0 8 -4 15 -10 15 -5 0 -10 9 -10 20 0 11 -4 20 -9 20 -5 0 -12 11 -15 24
-3 14 -12 31 -19 38 -6 7 -19 27 -27 43 -8 17 -27 49 -42 72 -15 23 -28 49
-28 57 0 9 -5 16 -12 16 -6 0 -8 3 -5 6 4 4 -5 20 -18 36 -14 16 -25 35 -25
42 0 7 -9 21 -20 31 -11 10 -17 22 -14 26 3 5 0 9 -6 9 -7 0 -10 6 -7 13 3 7
-4 19 -14 25 -10 7 -19 17 -19 23 0 5 -9 19 -20 31 -10 12 -17 25 -14 30 3 4
1 8 -3 8 -5 0 -17 17 -28 38 -11 20 -24 40 -28 43 -5 4 -14 17 -21 30 -17 35
-38 33 -63 -7z"/>
</g>
</svg>
